<svg xmlns="http://www.w3.org/2000/svg" xmlns:xlink="http://www.w3.org/1999/xlink"><symbol id="icon-arrow-down" viewBox="0 0 14 16"><g fill="none">
<path fill-rule="evenodd" clip-rule="evenodd" d="M7.00004 0C7.26526 0 7.51961 0.105357 7.70715 0.292893C7.89469 0.48043 8.00004 0.734784 8.00004 1V12.586L12.292 8.292C12.385 8.19902 12.4954 8.12527 12.6169 8.07495C12.7384 8.02463 12.8686 7.99874 13 7.99874C13.1315 7.99874 13.2617 8.02463 13.3832 8.07495C13.5047 8.12527 13.6151 8.19902 13.708 8.292C13.801 8.38498 13.8748 8.49535 13.9251 8.61683C13.9754 8.73831 14.0013 8.86851 14.0013 9C14.0013 9.13149 13.9754 9.26169 13.9251 9.38317C13.8748 9.50465 13.801 9.61502 13.708 9.708L7.70804 15.708C7.61515 15.8011 7.5048 15.875 7.38331 15.9254C7.26182 15.9758 7.13158 16.0018 7.00004 16.0018C6.86851 16.0018 6.73827 15.9758 6.61678 15.9254C6.49529 15.875 6.38493 15.8011 6.29204 15.708L0.292043 9.708C0.199067 9.61502 0.125314 9.50465 0.074996 9.38317C0.0246778 9.26169 -0.0012207 9.13149 -0.0012207 9C-0.0012207 8.86851 0.0246778 8.73831 0.074996 8.61683C0.125314 8.49535 0.199067 8.38498 0.292043 8.292C0.479816 8.10423 0.734491 7.99874 1.00004 7.99874C1.13153 7.99874 1.26173 8.02463 1.38321 8.07495C1.50469 8.12527 1.61507 8.19902 1.70804 8.292L6.00004 12.586V1C6.00004 0.734784 6.1054 0.48043 6.29294 0.292893C6.48047 0.105357 6.73483 0 7.00004 0V0Z" fill="#5F6B77"/>
</g></symbol><symbol id="icon-clock" viewBox="0 0 22 22"><g fill="none">
<rect width="22" height="22" fill="white"/>
<circle cx="12" cy="12" r="9" stroke="#5F6B77" stroke-linecap="round" stroke-linejoin="round"/>
<path d="M12 5.5V12H18" stroke="#5F6B77" stroke-linecap="round" stroke-linejoin="round"/>
</g></symbol><symbol id="icon-location" viewBox="0 0 24 22"><g fill="none">
<path fill-rule="evenodd" clip-rule="evenodd" d="M12 3C8.13 3 5 6.13 5 10C5 15.25 12 21 12 21C12 21 19 15.25 19 10C19 6.13 15.87 3 12 3ZM12 13C13.6569 13 15 11.6569 15 10C15 8.34315 13.6569 7 12 7C10.3431 7 9 8.34315 9 10C9 11.6569 10.3431 13 12 13Z" fill="#5F6B77"/>
</g></symbol><symbol id="icon-telegram" viewBox="0 0 24 24"><g fill="none">
<path d="M21 5L2 12.5L9 13.5M21 5L18.5 20L9 13.5M21 5L9 13.5M9 13.5V19L12.2488 15.7229" stroke="#5F6B77" stroke-width="1" stroke-linecap="round" stroke-linejoin="round"/>
</g></symbol><symbol id="icon-vk" viewBox="0 0 24 15"><g fill="none">
<path d="M12.145 14.519C15.617 14.519 14.379 12.4056 14.647 11.7979C14.643 11.344 14.639 10.9075 14.655 10.6421C14.875 10.7017 15.394 10.9546 16.466 11.9565C18.121 13.5623 18.544 14.519 19.881 14.519H22.342C23.122 14.519 23.528 14.2084 23.731 13.9479C23.927 13.6959 24.119 13.2536 23.909 12.5652C23.36 10.9075 20.158 8.04499 19.959 7.74306C19.989 7.68729 20.037 7.61325 20.062 7.57479H20.06C20.692 6.77191 23.104 3.29691 23.459 1.90652C23.46 1.9046 23.461 1.90172 23.461 1.89883C23.653 1.26422 23.477 0.852678 23.295 0.619986C23.021 0.271909 22.585 0.0959473 21.996 0.0959473H19.535C18.711 0.0959473 18.086 0.494986 17.77 1.22287C17.241 2.51614 15.755 5.17576 14.641 6.1171C14.607 4.78345 14.63 3.76518 14.648 3.00845C14.684 1.53249 14.8 0.0959473 13.207 0.0959473H9.339C8.341 0.0959473 7.386 1.14402 8.42 2.38825C9.324 3.47864 8.745 4.08633 8.94 7.11133C8.18 6.32768 6.828 4.21133 5.872 1.50652C5.604 0.774793 5.198 0.0969087 4.055 0.0969087H1.594C0.596 0.0969087 0 0.619986 0 1.49595C0 3.46325 4.529 14.519 12.145 14.519ZM4.055 1.53922C4.272 1.53922 4.294 1.53922 4.455 1.97864C5.434 4.75075 7.63 8.85268 9.234 8.85268C10.439 8.85268 10.439 7.66518 10.439 7.21806L10.438 3.65845C10.372 2.48056 9.926 1.89402 9.633 1.53825L13.141 1.5421C13.143 1.55845 13.121 5.4796 13.151 6.4296C13.151 7.77864 14.265 8.55172 16.004 6.85941C17.839 4.86806 19.108 1.89114 19.159 1.76999C19.234 1.59691 19.299 1.53825 19.535 1.53825H21.996H22.006C22.005 1.54114 22.005 1.54402 22.004 1.54691C21.779 2.55652 19.558 5.77383 18.815 6.77287C18.803 6.78826 18.792 6.8046 18.781 6.82095C18.454 7.33441 18.188 7.90172 18.826 8.69979H18.827C18.885 8.7671 19.036 8.92479 19.256 9.14402C19.94 9.82287 22.286 12.144 22.494 13.0671C22.356 13.0883 22.206 13.0729 19.881 13.0777C19.386 13.0777 18.999 12.3661 17.522 10.9334C16.194 9.69114 15.332 9.18345 14.547 9.18345C13.023 9.18345 13.134 10.3729 13.148 11.8113C13.153 13.3709 13.143 12.8777 13.154 12.9758C13.065 13.0094 12.81 13.0767 12.145 13.0767C5.8 13.0767 1.668 3.39306 1.509 1.5421C1.564 1.53729 2.321 1.54018 4.055 1.53922Z" fill="#5F6B77"/>
</g></symbol></svg>