<svg width="14" height="16" viewBox="0 0 14 16" fill="none" xmlns="http://www.w3.org/2000/svg">
<path fill-rule="evenodd" clip-rule="evenodd" d="M7.00004 0C7.26526 0 7.51961 0.105357 7.70715 0.292893C7.89469 0.48043 8.00004 0.734784 8.00004 1V12.586L12.292 8.292C12.385 8.19902 12.4954 8.12527 12.6169 8.07495C12.7384 8.02463 12.8686 7.99874 13 7.99874C13.1315 7.99874 13.2617 8.02463 13.3832 8.07495C13.5047 8.12527 13.6151 8.19902 13.708 8.292C13.801 8.38498 13.8748 8.49535 13.9251 8.61683C13.9754 8.73831 14.0013 8.86851 14.0013 9C14.0013 9.13149 13.9754 9.26169 13.9251 9.38317C13.8748 9.50465 13.801 9.61502 13.708 9.708L7.70804 15.708C7.61515 15.8011 7.5048 15.875 7.38331 15.9254C7.26182 15.9758 7.13158 16.0018 7.00004 16.0018C6.86851 16.0018 6.73827 15.9758 6.61678 15.9254C6.49529 15.875 6.38493 15.8011 6.29204 15.708L0.292043 9.708C0.199067 9.61502 0.125314 9.50465 0.074996 9.38317C0.0246778 9.26169 -0.0012207 9.13149 -0.0012207 9C-0.0012207 8.86851 0.0246778 8.73831 0.074996 8.61683C0.125314 8.49535 0.199067 8.38498 0.292043 8.292C0.479816 8.10423 0.734491 7.99874 1.00004 7.99874C1.13153 7.99874 1.26173 8.02463 1.38321 8.07495C1.50469 8.12527 1.61507 8.19902 1.70804 8.292L6.00004 12.586V1C6.00004 0.734784 6.1054 0.48043 6.29294 0.292893C6.48047 0.105357 6.73483 0 7.00004 0V0Z" fill="#5F6B77"/>
</svg>
